<?xml version="1.0" standalone="no"?>
<!DOCTYPE svg PUBLIC "-//W3C//DTD SVG 20010904//EN"
 "http://www.w3.org/TR/2001/REC-SVG-20010904/DTD/svg10.dtd">
<svg version="1.0" xmlns="http://www.w3.org/2000/svg"
 width="950.000000pt" height="950.000000pt" viewBox="0 0 950.000000 950.000000"
 preserveAspectRatio="xMidYMid meet">
<metadata>
Created by potrace 1.14, written by Peter Selinger 2001-2017
</metadata>
<g transform="translate(0.000000,950.000000) scale(0.100000,-0.100000)"
fill="#000000" stroke="none">
<path d="M1825 6317 c-84 -40 -938 -537 -962 -559 -13 -12 -32 -40 -43 -63
-19 -40 -20 -61 -20 -615 0 -554 1 -575 20 -615 11 -23 30 -51 43 -63 37 -34
958 -562 1002 -574 66 -18 121 -3 240 66 l110 64 5 -152 c4 -136 7 -155 28
-188 13 -21 37 -47 54 -59 16 -12 239 -142 495 -290 488 -281 510 -291 589
-270 37 10 961 537 996 568 10 9 29 38 43 66 23 47 25 62 25 188 l0 137 -106
61 c-58 34 -108 61 -110 61 -2 0 -4 -80 -4 -177 l0 -178 -443 -255 c-243 -140
-449 -255 -457 -254 -8 1 -213 116 -455 256 l-440 255 0 179 0 179 255 147
c276 159 319 193 339 272 7 28 11 152 11 329 l0 284 143 81 c78 45 148 82 154
82 7 0 62 -29 124 -65 61 -36 124 -72 140 -81 l29 -15 0 124 0 123 -112 64
c-97 56 -119 65 -173 68 -67 4 -87 -3 -230 -87 l-70 -41 -5 142 c-6 156 -18
195 -77 249 -15 15 -241 149 -501 299 -441 254 -476 272 -530 276 -46 4 -67 0
-107 -19z m540 -461 l440 -255 3 -183 2 -183 -242 -140 c-134 -77 -258 -153
-276 -169 -66 -58 -66 -59 -72 -400 l-5 -308 -145 -84 c-80 -46 -149 -84 -153
-84 -5 0 -208 115 -453 257 l-444 256 0 517 0 517 443 256 c243 141 447 256
452 256 6 1 208 -114 450 -253z m438 -1297 c-11 -9 -338 -198 -358 -205 -13
-5 -15 18 -15 199 0 155 3 207 13 215 7 6 91 56 187 112 l175 100 3 -207 c1
-113 -1 -210 -5 -214z"/>
<path d="M6141 5498 c-26 -4 -92 -35 -155 -72 l-111 -64 -3 -126 c-1 -69 0
-126 3 -126 3 0 72 38 154 85 81 47 151 85 155 85 4 0 67 -34 139 -76 73 -42
135 -79 140 -81 4 -2 7 54 7 124 l0 128 -106 59 c-115 64 -156 76 -223 64z"/>
<path d="M6692 5114 l3 -126 193 -111 192 -111 0 -216 0 -216 108 -62 107 -62
3 298 c3 335 0 355 -66 414 -31 28 -521 318 -537 318 -3 0 -4 -57 -3 -126z"/>
<path d="M3860 5108 l0 -123 183 -106 182 -106 5 -213 5 -212 100 -59 c55 -32
103 -58 108 -59 4 0 7 132 7 293 0 322 -4 341 -66 398 -23 21 -395 242 -501
298 l-23 12 0 -123z"/>
<path d="M5390 5083 c-273 -159 -300 -182 -320 -269 -10 -41 -14 -584 -5 -584
3 0 53 27 110 61 l105 61 2 206 3 207 182 105 183 105 0 128 c0 70 -1 127 -3
127 -1 0 -117 -66 -257 -147z"/>
<path d="M5170 4026 l-105 -61 -3 -114 c-4 -157 9 -213 62 -267 29 -30 176
-120 496 -305 250 -144 469 -268 487 -275 40 -17 99 -18 143 -2 40 13 956 541
983 566 49 44 62 90 67 242 l5 145 -107 63 c-60 34 -110 62 -113 62 -2 0 -6
-79 -7 -176 l-3 -177 -447 -258 -446 -258 -449 259 -448 259 -5 179 -5 178
-105 -60z"/>
</g>
</svg>
