<?xml version="1.0" standalone="no"?>
<!DOCTYPE svg PUBLIC "-//W3C//DTD SVG 20010904//EN"
 "http://www.w3.org/TR/2001/REC-SVG-20010904/DTD/svg10.dtd">
<svg version="1.0" xmlns="http://www.w3.org/2000/svg"
 width="1511.000000pt" height="1511.000000pt" viewBox="0 0 1511.000000 1511.000000"
 preserveAspectRatio="xMidYMid meet">
<metadata>
Created by potrace 1.14, written by Peter Selinger 2001-2017
</metadata>
<g transform="translate(0.000000,1511.000000) scale(0.100000,-0.100000)"
fill="#000000" stroke="none">
<path d="M2475 11145 c-22 -13 -443 -256 -935 -540 -492 -285 -911 -526 -930
-538 -19 -11 -44 -25 -55 -31 -11 -6 -140 -80 -288 -165 l-267 -154 0 -1457 0
-1457 27 -14 c16 -7 44 -23 63 -35 19 -12 168 -98 330 -192 162 -93 311 -179
330 -191 19 -11 42 -24 50 -28 8 -4 47 -26 85 -48 39 -23 90 -53 115 -67 25
-14 61 -34 80 -45 426 -247 855 -495 905 -523 130 -75 626 -365 873 -511 45
-27 84 -49 87 -49 3 0 34 -18 70 -40 36 -22 67 -40 70 -40 3 0 28 -15 57 -33
29 -19 74 -46 101 -60 98 -55 137 -78 317 -182 102 -59 199 -115 215 -125 74
-43 410 -237 443 -256 45 -25 316 -181 502 -289 74 -43 153 -89 175 -102 32
-18 55 -23 116 -23 l76 0 214 123 c469 270 886 511 914 528 17 10 41 24 55 32
14 7 102 58 195 112 169 98 253 146 330 190 55 31 310 179 540 312 l190 110
35 -22 c32 -20 391 -228 470 -272 19 -11 136 -79 260 -150 124 -72 241 -140
260 -150 19 -11 107 -62 195 -113 88 -51 174 -101 190 -110 17 -10 148 -85
292 -168 144 -84 277 -160 295 -171 18 -10 124 -71 234 -135 l202 -116 93 0
c80 0 100 4 134 23 22 13 132 77 245 142 113 65 220 126 238 137 18 10 102 58
185 107 128 74 262 152 523 302 172 99 402 232 414 240 8 5 94 54 190 109 96
55 182 104 190 109 8 5 94 55 190 111 96 55 216 126 265 156 50 30 99 60 110
65 11 5 29 15 40 21 38 25 99 60 139 82 23 12 171 98 329 190 159 92 305 176
325 187 20 11 127 73 238 137 164 95 967 560 1031 597 201 115 243 141 244
155 1 20 1 2860 0 2882 -1 10 -36 36 -93 69 -51 28 -190 108 -308 177 -118 69
-231 134 -250 145 -19 10 -107 61 -195 112 -88 51 -176 102 -195 112 -19 11
-59 34 -88 52 -29 17 -57 31 -62 31 -6 0 -10 5 -10 10 0 6 -5 10 -10 10 -6 0
-121 65 -258 144 -136 79 -263 153 -282 163 -19 11 -150 87 -290 168 -140 81
-273 158 -295 171 -22 12 -71 40 -110 62 l-69 41 -51 -28 c-41 -23 -165 -95
-462 -267 -50 -30 -256 -147 -278 -159 -11 -6 -39 -23 -62 -38 -24 -15 -45
-27 -47 -27 -3 0 -46 -25 -97 -55 -50 -30 -93 -55 -94 -55 -2 0 -37 -20 -78
-44 -41 -24 -180 -105 -308 -179 -129 -74 -284 -163 -345 -199 -61 -36 -117
-68 -125 -71 -8 -4 -34 -20 -59 -35 -25 -15 -112 -65 -193 -112 -81 -47 -162
-93 -180 -103 -18 -11 -55 -32 -83 -48 l-50 -28 -40 20 c-21 12 -102 58 -179
103 -130 76 -172 101 -265 154 -19 10 -75 43 -125 72 -49 29 -106 61 -125 72
-19 11 -91 53 -160 93 -119 69 -486 280 -560 322 -19 11 -75 44 -125 73 -49
29 -109 63 -132 76 -23 13 -108 62 -188 109 -81 47 -150 85 -154 85 -4 0 -12
5 -19 12 -7 7 -37 26 -67 43 -30 16 -127 71 -215 122 l-160 92 -502 -291
c-277 -160 -524 -302 -550 -317 -26 -14 -102 -58 -170 -97 -193 -113 -491
-285 -628 -363 -69 -39 -132 -75 -140 -80 -16 -11 -342 -198 -375 -217 -11 -6
-48 -28 -83 -48 l-63 -38 -67 40 c-37 22 -85 50 -107 62 -41 23 -274 158 -495
285 -69 40 -141 82 -160 93 -19 11 -91 52 -160 92 -139 80 -175 101 -222 129
-18 10 -222 127 -453 261 -231 134 -438 253 -460 265 -22 13 -118 68 -214 124
-95 56 -174 101 -175 101 0 -1 -19 -12 -41 -25z m259 -567 c116 -66 231 -133
256 -148 25 -15 65 -39 90 -53 50 -27 834 -479 975 -562 86 -50 191 -110 265
-153 92 -52 285 -164 288 -167 2 -2 -128 -81 -250 -150 -10 -5 -84 -48 -165
-95 -81 -47 -170 -98 -198 -113 -27 -16 -93 -54 -145 -85 -52 -32 -99 -59
-105 -61 -5 -2 -48 -26 -95 -54 -172 -101 -322 -187 -328 -187 -3 0 -13 -6
-21 -14 -9 -7 -41 -27 -71 -43 -30 -17 -154 -87 -275 -158 -121 -70 -272 -157
-335 -193 -63 -36 -117 -69 -120 -73 -3 -4 -5 -554 -5 -1222 0 -1109 -1 -1214
-16 -1207 -9 5 -99 57 -200 116 -101 59 -200 116 -219 127 -19 10 -242 139
-495 285 -253 146 -617 356 -810 468 l-350 202 0 1223 0 1223 195 113 c107 63
202 117 210 120 8 4 31 16 50 28 30 19 358 209 470 272 123 70 692 400 722
420 21 12 40 23 43 23 2 0 49 26 102 58 54 32 105 61 113 65 8 4 56 31 105 61
50 30 94 55 99 55 5 1 104 -54 220 -121z m4914 63 c55 -32 124 -72 154 -88 29
-16 163 -94 298 -173 135 -78 268 -155 295 -170 52 -28 269 -153 295 -170 19
-12 115 -67 160 -93 19 -11 107 -61 195 -112 88 -51 176 -102 195 -112 51 -29
404 -235 408 -238 2 -1 -91 -57 -205 -123 -353 -204 -656 -379 -693 -399 -19
-11 -235 -136 -480 -278 -245 -141 -510 -294 -589 -340 l-144 -83 -36 23 c-32
21 -269 158 -331 192 -14 8 -39 22 -56 32 -17 10 -154 89 -305 176 -151 87
-294 170 -319 185 -25 15 -126 74 -225 130 -99 57 -274 158 -390 226 -115 67
-226 130 -245 141 -19 10 -72 40 -118 67 l-84 49 39 23 c21 13 45 27 53 31 8
3 43 24 78 45 34 21 65 38 67 38 3 0 22 11 43 23 20 13 145 86 277 162 132 76
337 194 455 263 118 68 240 138 270 155 30 16 66 38 80 47 14 9 32 20 40 23 8
4 33 18 55 32 22 14 46 28 52 31 7 3 145 82 305 175 161 93 296 169 300 169 3
0 51 -27 106 -59z m5055 -17 c73 -42 152 -88 177 -102 25 -14 57 -33 72 -43
14 -11 28 -19 31 -19 3 0 43 -22 89 -49 130 -77 517 -300 578 -334 30 -16 67
-38 82 -49 14 -10 29 -18 32 -18 3 0 46 -25 97 -55 50 -30 93 -55 95 -55 2 0
25 -13 51 -29 27 -16 67 -40 89 -53 23 -12 164 -93 313 -178 l270 -155 1
-1221 0 -1222 -26 -17 c-14 -9 -51 -31 -83 -47 -31 -17 -63 -37 -72 -44 -8 -8
-19 -14 -22 -14 -4 0 -37 -18 -73 -40 -36 -22 -68 -40 -70 -40 -2 0 -32 -17
-66 -38 -35 -21 -70 -41 -78 -45 -8 -4 -22 -11 -30 -17 -8 -5 -82 -49 -165
-96 -82 -48 -251 -145 -375 -217 -448 -258 -619 -357 -832 -480 l-218 -125 0
1218 0 1218 -42 25 c-24 14 -59 34 -78 44 -19 11 -208 120 -420 243 -212 122
-401 232 -420 243 -19 10 -109 62 -200 115 -91 52 -178 103 -195 112 -70 40
-545 315 -595 344 -30 18 -79 46 -107 62 -29 16 -52 33 -50 38 1 4 106 68 232
140 127 73 241 139 255 147 20 13 235 137 565 327 455 261 740 426 915 528 69
41 129 74 133 74 4 0 67 -34 140 -76z m-8072 -1621 c0 -16 0 -462 1 -992 0
-799 -2 -965 -13 -976 -8 -6 -120 -73 -249 -147 -465 -269 -687 -397 -721
-417 -19 -11 -41 -24 -49 -28 -8 -4 -43 -24 -78 -45 -34 -21 -64 -38 -66 -38
-1 0 -126 -72 -277 -159 -151 -87 -276 -157 -278 -156 -2 3 -4 1848 -2 1961 1
29 8 36 89 82 48 27 186 107 307 177 121 70 234 135 250 145 17 9 72 41 123
71 50 30 104 61 120 69 32 18 207 119 417 241 83 48 166 96 185 107 19 11 78
45 130 75 52 31 98 56 103 57 4 0 7 -12 8 -27z m5026 -973 l0 -990 -241 -139
c-481 -278 -1332 -769 -1361 -785 -16 -9 -48 -27 -70 -41 -22 -13 -42 -24 -45
-25 -3 0 -5 444 -5 987 l0 988 110 63 c348 203 425 247 470 272 28 15 155 89
284 164 128 75 236 136 238 136 3 0 17 8 31 19 15 10 47 29 72 43 86 48 126
71 220 127 52 31 106 62 120 68 14 7 32 17 40 23 15 9 134 80 136 80 1 0 1
-445 1 -990z m-3824 753 c389 -225 706 -408 1094 -631 l201 -116 0 -988 c0
-543 -2 -988 -4 -988 -2 0 -33 18 -69 40 -36 22 -67 40 -69 40 -1 0 -70 39
-152 86 -82 48 -162 94 -179 104 -26 15 -488 282 -880 508 -71 41 -177 102
-235 135 -58 33 -107 62 -110 64 -8 8 -6 1973 3 1973 4 0 184 -102 400 -227z
m4725 171 c53 -31 112 -65 130 -76 18 -10 90 -51 160 -92 70 -40 289 -167 487
-281 198 -114 434 -250 525 -303 91 -52 179 -103 197 -113 17 -10 50 -30 73
-44 l41 -26 -2 -984 c-1 -542 -3 -985 -4 -985 -2 0 -342 196 -413 238 -29 18
-54 32 -56 32 -2 0 -66 37 -142 81 -76 45 -155 91 -174 102 -66 37 -885 509
-907 523 l-23 14 0 985 c0 542 2 985 6 985 3 0 49 -25 102 -56z m-5369 -2244
c85 -50 156 -90 158 -90 2 0 20 -11 41 -23 20 -13 57 -35 82 -49 25 -14 117
-67 205 -118 88 -51 176 -102 195 -113 19 -11 49 -28 65 -38 17 -11 37 -22 45
-26 8 -4 55 -31 104 -60 49 -29 90 -53 92 -53 1 0 80 -45 174 -100 94 -55 173
-100 174 -100 2 0 45 -25 96 -55 51 -31 122 -72 159 -92 36 -20 73 -41 81 -48
8 -7 20 -14 26 -16 31 -11 232 -134 229 -139 -3 -4 -46 -31 -97 -60 -337 -194
-623 -359 -685 -396 -40 -24 -75 -44 -77 -44 -2 0 -49 -27 -104 -59 -55 -33
-190 -111 -299 -174 -521 -300 -800 -461 -818 -473 -19 -12 -32 -7 -125 47
-58 34 -123 71 -145 84 -22 12 -112 64 -200 115 -314 183 -759 439 -835 482
-51 29 -291 168 -520 301 -85 49 -182 105 -215 123 -33 18 -60 38 -60 45 0 7
52 43 115 79 199 115 843 487 880 508 19 11 112 64 206 119 94 55 177 103 185
107 8 4 23 12 34 19 42 25 489 283 536 309 27 15 66 39 87 52 20 14 42 25 47
25 6 1 79 -40 164 -89z m4953 41 c115 -67 413 -239 468 -269 25 -14 57 -33 71
-43 15 -10 37 -23 50 -29 13 -6 38 -18 54 -29 47 -28 892 -517 981 -567 189
-107 394 -229 394 -236 0 -4 -4 -8 -10 -8 -5 0 -62 -31 -127 -69 -256 -148
-407 -236 -473 -273 -86 -49 -368 -213 -395 -229 -16 -11 -37 -22 -45 -26 -8
-3 -46 -25 -85 -48 -38 -23 -182 -106 -320 -185 -137 -78 -262 -151 -277 -161
-15 -11 -29 -19 -31 -19 -2 0 -71 -39 -153 -86 -82 -48 -160 -93 -172 -99 -21
-12 -33 -7 -120 44 -54 31 -158 92 -232 134 -74 43 -142 82 -150 87 -8 5 -53
31 -100 58 -70 41 -325 188 -455 262 -98 56 -984 568 -1038 600 l-38 23 113
65 c199 114 246 141 280 160 54 31 340 198 378 221 19 11 42 24 50 28 8 4 78
43 155 88 77 45 248 144 380 220 132 76 281 161 330 190 301 176 421 244 427
245 4 0 45 -22 90 -49z"/>
</g>
</svg>
